<svg xmlns="http://www.w3.org/2000/svg" width="28.752" height="24.763" viewBox="0 0 28.752 24.763">
  <g id="Group_583" data-name="Group 583" transform="translate(685.222 -938.601)">
    <path id="Path_10714" data-name="Path 10714" d="M-685.222,948.528c.937-1.408,1.871-2.817,2.816-4.219a.955.955,0,0,1,.366-.292q5.406-2.666,10.816-5.324a.909.909,0,0,1,.855.036c3.328,1.575,6.651,3.16,9.993,4.7a3.34,3.34,0,0,1,1.591,1.4c.667,1.147,1.411,2.25,2.12,3.372a.769.769,0,0,1-.3,1.24q-5.049,2.893-10.1,5.78a.77.77,0,0,1-1.129-.227l-1.891-2.371v8.778c.114-.059.21-.107.305-.159q4.683-2.571,9.367-5.139a1.328,1.328,0,0,1,.495-.169.691.691,0,0,1,.725.5.71.71,0,0,1-.28.816c-.226.149-.468.273-.705.4q-5.015,2.753-10.027,5.511a1.173,1.173,0,0,1-1.254.018q-5.282-2.817-10.587-5.592a.826.826,0,0,1-.49-.805c.007-1.937,0-3.875.008-5.812a.407.407,0,0,0-.238-.418c-.631-.346-1.247-.72-1.879-1.064a1.257,1.257,0,0,1-.577-.579Zm5.069-3.8c.1.058.164.1.236.14q4.413,2.331,8.825,4.664a.444.444,0,0,0,.484,0q4.262-2.346,8.531-4.68c.169-.092.336-.189.539-.3-.124-.067-.209-.119-.3-.161q-4.374-2.062-8.746-4.128a.5.5,0,0,0-.491,0q-3.077,1.525-6.161,3.036Zm8.549,16.7v-8.805c-.66.828-1.282,1.61-1.907,2.39a.768.768,0,0,1-1.109.214l-.171-.1-5.984-3.427c-.084-.048-.172-.091-.286-.151,0,1.552.008,3.058-.008,4.563a.47.47,0,0,0,.3.488q4.119,2.161,8.232,4.336C-672.232,961.107-671.927,961.265-671.6,961.434Zm1.882-10.714,2.374,2.973,9.109-5.214-1.906-3.005Zm-2.255.01-9.578-5.053-1.878,2.813,9.093,5.2Z" fill="#007da5"/>
    <path id="Path_10715" data-name="Path 10715" d="M-358.121,1131.671a.847.847,0,0,1-.867-.835.847.847,0,0,1,.855-.874.845.845,0,0,1,.852.849A.843.843,0,0,1-358.121,1131.671Z" transform="translate(-301.759 -177.004)" fill="#007da5"/>
  </g>
</svg>
