<svg xmlns="http://www.w3.org/2000/svg" xmlns:xlink="http://www.w3.org/1999/xlink" width="36" height="36" viewBox="0 0 36 36">
  <defs>
    <linearGradient id="linear-gradient" x1="0.5" x2="0.5" y2="1" gradientUnits="objectBoundingBox">
      <stop offset="0" stop-color="#8fe6c6"/>
      <stop offset="1" stop-color="#6dc5d3"/>
    </linearGradient>
  </defs>
  <g id="btn-send" transform="translate(0 0)">
    <circle id="BG" cx="18" cy="18" r="18" transform="translate(0 0)" fill="url(#linear-gradient)"/>
    <g id="camera" transform="translate(9.808 11.179)">
      <path id="Path_11" data-name="Path 11" d="M17.952,15.329a1.541,1.541,0,0,1-1.541,1.541H2.541A1.541,1.541,0,0,1,1,15.329V6.853A1.541,1.541,0,0,1,2.541,5.312H5.623L7.164,3h4.623l1.541,2.312h3.082a1.541,1.541,0,0,1,1.541,1.541Z" transform="translate(-1 -3)" fill="none" stroke="#fff" stroke-linecap="round" stroke-linejoin="round" stroke-width="2"/>
      <ellipse id="Ellipse_10" data-name="Ellipse 10" cx="2.691" cy="2.691" rx="2.691" ry="2.691" transform="translate(5.785 4.913)" fill="none" stroke="#fff" stroke-linecap="round" stroke-linejoin="round" stroke-width="2"/>
    </g>
  </g>
</svg>
