<svg xmlns="http://www.w3.org/2000/svg" width="20.451" height="25.402" viewBox="0 0 20.451 25.402">
  <g id="packing" transform="translate(-31.25 -23.265)">
    <path id="Path_10716" data-name="Path 10716" d="M51.109,32.125l-4.992-1.934a4.92,4.92,0,1,0-9.282,0l-4.992,1.934a.537.537,0,0,0-.342.5v11.58a.537.537,0,0,0,.343.5l9.438,3.659a.539.539,0,0,0,.194.036.532.532,0,0,0,.192-.04l0,0,9.439-3.659a.537.537,0,0,0,.342-.5V32.625a.537.537,0,0,0-.342-.5Zm-1.68.5-1.742.675L44.8,32.19a4.946,4.946,0,0,0,.851-1.028Zm-5.687.309,2.455.944-1.386.537-2.543-.994A4.887,4.887,0,0,0,43.742,32.934Zm1.671,2.4,1.8-.7v2.238l-.3-.2a.537.537,0,0,0-.684.082l-.818.868ZM41.475,24.726a3.846,3.846,0,1,1-3.846,3.846,3.846,3.846,0,0,1,3.846-3.846ZM37.608,31.6l-.719-.281.412-.16a4.931,4.931,0,0,0,.307.441Zm-2.2.293,7.92,3.1-1.852.718-7.953-3.083ZM32.574,43.837V33.41l8.364,3.242V47.08Zm9.438,3.242V36.652l2.326-.9v3.229a.537.537,0,0,0,.339.5.531.531,0,0,0,.2.038.537.537,0,0,0,.391-.169L46.7,37.821l.756.491a.537.537,0,0,0,.829-.45V34.218l2.087-.808V43.837Z" transform="translate(0 0)" fill="#807f7f" stroke="#807f7f" stroke-width="0.5"/>
    <path id="Path_10717" data-name="Path 10717" d="M57.325,37.41a.537.537,0,0,0,.706-.01l2.6-2.341a.537.537,0,1,0-.718-.8l-2.257,2.029-1.028-.869a.537.537,0,1,0-.694.82Z" transform="translate(-16.807 -7.258)" fill="#807f7f" stroke="#807f7f" stroke-width="0.5"/>
  </g>
</svg>
